<svg id="visual" viewBox="0 0 900 600" width="900" height="600" xmlns="http://www.w3.org/2000/svg" xmlns:xlink="http://www.w3.org/1999/xlink" version="1.1"><rect x="0" y="0" width="900" height="600" fill="#001220"></rect><path d="M0 394L12.5 403C25 412 50 430 75 438.3C100 446.7 125 445.3 150 435.5C175 425.7 200 407.3 225 396C250 384.7 275 380.3 300 375.3C325 370.3 350 364.7 375 365C400 365.3 425 371.7 450 372.5C475 373.3 500 368.7 525 364C550 359.3 575 354.7 600 356.5C625 358.3 650 366.7 675 373.8C700 381 725 387 750 384.5C775 382 800 371 825 365.5C850 360 875 360 887.5 360L900 360L900 601L887.5 601C875 601 850 601 825 601C800 601 775 601 750 601C725 601 700 601 675 601C650 601 625 601 600 601C575 601 550 601 525 601C500 601 475 601 450 601C425 601 400 601 375 601C350 601 325 601 300 601C275 601 250 601 225 601C200 601 175 601 150 601C125 601 100 601 75 601C50 601 25 601 12.5 601L0 601Z" fill="#c62368"></path><path d="M0 413L12.5 414.8C25 416.7 50 420.3 75 420.2C100 420 125 416 150 423.7C175 431.3 200 450.7 225 453.3C250 456 275 442 300 439C325 436 350 444 375 447C400 450 425 448 450 440C475 432 500 418 525 418.8C550 419.7 575 435.3 600 440.3C625 445.3 650 439.7 675 434.5C700 429.3 725 424.7 750 430.8C775 437 800 454 825 457.5C850 461 875 451 887.5 446L900 441L900 601L887.5 601C875 601 850 601 825 601C800 601 775 601 750 601C725 601 700 601 675 601C650 601 625 601 600 601C575 601 550 601 525 601C500 601 475 601 450 601C425 601 400 601 375 601C350 601 325 601 300 601C275 601 250 601 225 601C200 601 175 601 150 601C125 601 100 601 75 601C50 601 25 601 12.5 601L0 601Z" fill="#d53867"></path><path d="M0 490L12.5 481.2C25 472.3 50 454.7 75 448.7C100 442.7 125 448.3 150 448.8C175 449.3 200 444.7 225 449C250 453.3 275 466.7 300 476.8C325 487 350 494 375 490.5C400 487 425 473 450 474.5C475 476 500 493 525 495.8C550 498.7 575 487.3 600 480C625 472.7 650 469.3 675 473.5C700 477.7 725 489.3 750 485.2C775 481 800 461 825 461.8C850 462.7 875 484.3 887.5 495.2L900 506L900 601L887.5 601C875 601 850 601 825 601C800 601 775 601 750 601C725 601 700 601 675 601C650 601 625 601 600 601C575 601 550 601 525 601C500 601 475 601 450 601C425 601 400 601 375 601C350 601 325 601 300 601C275 601 250 601 225 601C200 601 175 601 150 601C125 601 100 601 75 601C50 601 25 601 12.5 601L0 601Z" fill="#e34c67"></path><path d="M0 537L12.5 536.8C25 536.7 50 536.3 75 529.8C100 523.3 125 510.7 150 508.2C175 505.7 200 513.3 225 520.3C250 527.3 275 533.7 300 528.7C325 523.7 350 507.3 375 504C400 500.7 425 510.3 450 518.7C475 527 500 534 525 533.5C550 533 575 525 600 519.3C625 513.7 650 510.3 675 513.3C700 516.3 725 525.7 750 523.2C775 520.7 800 506.3 825 504.8C850 503.3 875 514.7 887.5 520.3L900 526L900 601L887.5 601C875 601 850 601 825 601C800 601 775 601 750 601C725 601 700 601 675 601C650 601 625 601 600 601C575 601 550 601 525 601C500 601 475 601 450 601C425 601 400 601 375 601C350 601 325 601 300 601C275 601 250 601 225 601C200 601 175 601 150 601C125 601 100 601 75 601C50 601 25 601 12.5 601L0 601Z" fill="#ef5f67"></path><path d="M0 557L12.5 553.5C25 550 50 543 75 538.7C100 534.3 125 532.7 150 536.8C175 541 200 551 225 553.8C250 556.7 275 552.3 300 546.3C325 540.3 350 532.7 375 528.7C400 524.7 425 524.3 450 525.7C475 527 500 530 525 531.5C550 533 575 533 600 538.2C625 543.3 650 553.7 675 552.3C700 551 725 538 750 537.2C775 536.3 800 547.7 825 553.2C850 558.7 875 558.3 887.5 558.2L900 558L900 601L887.5 601C875 601 850 601 825 601C800 601 775 601 750 601C725 601 700 601 675 601C650 601 625 601 600 601C575 601 550 601 525 601C500 601 475 601 450 601C425 601 400 601 375 601C350 601 325 601 300 601C275 601 250 601 225 601C200 601 175 601 150 601C125 601 100 601 75 601C50 601 25 601 12.5 601L0 601Z" fill="#fa7268"></path></svg>